<svg width="58" height="58" viewBox="0 0 58 58" fill="none" xmlns="http://www.w3.org/2000/svg">
<g filter="url(#filter0_d_1498_1420)">
<path d="M20.1397 12.9816C18.9959 14.0285 17.4622 15.5362 16.9804 16.4998C15.9804 18.4998 17.4804 23.9998 22.9804 29.9998C27.3804 34.7998 32.8138 36.8667 35.9805 37.2C38.1145 37.4246 40.0971 35.2119 41.1632 33.7449C41.6835 33.029 41.5584 32.0638 40.943 31.4279L37.5787 27.9516C36.7342 27.0789 35.3135 27.155 34.5131 28.0683C33.7847 28.8993 32.9601 29.7602 32.4805 30C30.8551 30.8127 23.4805 23 23.9804 21.4998C24.4093 20.8565 25.206 20.1212 25.9762 19.4911C26.968 18.6798 27.0992 17.1593 26.1719 16.2748L22.7745 13.0341C22.0376 12.3313 20.8909 12.294 20.1397 12.9816Z" fill="white"/>
<path d="M20.1397 12.9816C18.9959 14.0285 17.4622 15.5362 16.9804 16.4998C15.9804 18.4998 17.4804 23.9998 22.9804 29.9998C27.3804 34.7998 32.8138 36.8667 35.9805 37.2C38.1145 37.4246 40.0971 35.2119 41.1632 33.7449C41.6835 33.029 41.5584 32.0638 40.943 31.4279L37.5787 27.9516C36.7342 27.0789 35.3135 27.155 34.5131 28.0683C33.7847 28.8993 32.9601 29.7602 32.4805 30C30.8551 30.8127 23.4805 23 23.9804 21.4998C24.4093 20.8565 25.206 20.1212 25.9762 19.4911C26.968 18.6798 27.0992 17.1593 26.1719 16.2748L22.7745 13.0341C22.0376 12.3313 20.8909 12.294 20.1397 12.9816Z" stroke="#3E4958" stroke-width="2"/>
</g>
<path fill-rule="evenodd" clip-rule="evenodd" d="M31.4805 10C30.9282 10 30.4805 10.4477 30.4805 11C30.4805 11.5523 30.9282 12 31.4805 12C33.6244 12 36.2628 13.3185 38.4084 15.4045C40.55 17.4867 41.9805 20.1196 41.9805 22.5C41.9805 23.0523 42.4282 23.5 42.9805 23.5C43.5328 23.5 43.9805 23.0523 43.9805 22.5C43.9805 19.3804 42.1609 16.2633 39.8025 13.9705C37.4482 11.6815 34.3366 10 31.4805 10ZM31.4805 15C30.9282 15 30.4805 15.4477 30.4805 16C30.4805 16.5523 30.9282 17 31.4805 17C31.6771 17 32.1053 17.0771 32.6853 17.3105C33.2455 17.536 33.8833 17.8819 34.494 18.3538C35.7144 19.2968 36.774 20.6967 36.9866 22.6104C37.0476 23.1593 37.542 23.5549 38.0909 23.4939C38.6398 23.4329 39.0353 22.9385 38.9744 22.3896C38.687 19.8033 37.2465 17.9532 35.7169 16.7712C34.9527 16.1806 34.153 15.7453 33.4319 15.4551C32.7307 15.1729 32.0338 15 31.4805 15Z" fill="#3E4958"/>
<defs>
<filter id="filter0_d_1498_1420" x="0.691406" y="0.48584" width="56.7988" height="56.7302" filterUnits="userSpaceOnUse" color-interpolation-filters="sRGB">
<feFlood flood-opacity="0" result="BackgroundImageFix"/>
<feColorMatrix in="SourceAlpha" type="matrix" values="0 0 0 0 0 0 0 0 0 0 0 0 0 0 0 0 0 0 127 0" result="hardAlpha"/>
<feOffset dy="4"/>
<feGaussianBlur stdDeviation="7.5"/>
<feColorMatrix type="matrix" values="0 0 0 0 0 0 0 0 0 0 0 0 0 0 0 0 0 0 0.15 0"/>
<feBlend mode="normal" in2="BackgroundImageFix" result="effect1_dropShadow_1498_1420"/>
<feBlend mode="normal" in="SourceGraphic" in2="effect1_dropShadow_1498_1420" result="shape"/>
</filter>
</defs>
</svg>
