<svg width="56" height="57" viewBox="0 0 56 57" fill="none" xmlns="http://www.w3.org/2000/svg">
<g filter="url(#filter0_d_1498_8346)">
<path d="M27.9922 37C35.1719 37 40.9922 31.1797 40.9922 24C40.9922 16.8203 35.1719 11 27.9922 11C20.8125 11 14.9922 16.8203 14.9922 24C14.9922 27.2497 16.1846 30.2209 18.1558 32.5C18.1558 32.5 17.9922 34.5 14.9922 37C18.9922 37.5 21.3401 35.1715 21.3401 35.1715C23.2862 36.3328 25.5613 37 27.9922 37Z" fill="white"/>
</g>
<path fill-rule="evenodd" clip-rule="evenodd" d="M27.9922 12C21.3648 12 15.9922 17.3726 15.9922 24C15.9922 27.0005 17.0921 29.7416 18.9121 31.8458C19.1222 32.0887 19.1947 32.4039 19.1364 32.6963C19.0576 34.0233 18.1967 35.1472 17.4794 35.9016C17.4384 35.9447 17.3973 35.9872 17.3561 36.0291C17.4232 36.0206 17.4911 36.0109 17.5596 36C18.5887 35.8358 19.6733 35.4047 20.4851 34.5929C20.5254 34.5526 20.5683 34.5165 20.6132 34.4845C20.9279 34.1509 21.4424 34.068 21.8526 34.3128C23.648 35.3842 25.7467 36 27.9922 36C34.6196 36 39.9922 30.6274 39.9922 24C39.9922 17.3726 34.6196 12 27.9922 12ZM21.4759 36.394C23.423 37.4197 25.641 38 27.9922 38C35.7242 38 41.9922 31.732 41.9922 24C41.9922 16.268 35.7242 10 27.9922 10C20.2602 10 13.9922 16.268 13.9922 24C13.9922 27.3356 15.1599 30.4007 17.1077 32.8056C16.9948 33.3245 16.6104 33.9131 16.03 34.5234C15.7034 34.867 15.3562 35.1749 15.0485 35.4358C14.9756 35.4977 14.8975 35.5627 14.8193 35.6279C14.6121 35.8006 14.4037 35.9743 14.2851 36.0929C14.0578 36.3202 13.9536 36.6429 14.0051 36.9602C14.0566 37.2775 14.2575 37.5507 14.545 37.6944C14.9548 37.8993 15.484 38.0101 16.0191 38.0544C16.5733 38.1003 17.2102 38.0811 17.8748 37.975C19.0433 37.7885 20.3641 37.3218 21.4759 36.394ZM20.9922 20C20.9922 19.4477 21.4399 19 21.9922 19H33.9922C34.5445 19 34.9922 19.4477 34.9922 20C34.9922 20.5523 34.5445 21 33.9922 21H21.9922C21.4399 21 20.9922 20.5523 20.9922 20ZM20.9922 24C20.9922 23.4477 21.4399 23 21.9922 23H31.4922C32.0445 23 32.4922 23.4477 32.4922 24C32.4922 24.5523 32.0445 25 31.4922 25H21.9922C21.4399 25 20.9922 24.5523 20.9922 24ZM21.9922 27C21.4399 27 20.9922 27.4477 20.9922 28C20.9922 28.5523 21.4399 29 21.9922 29H29.4922C30.0445 29 30.4922 28.5523 30.4922 28C30.4922 27.4477 30.0445 27 29.4922 27H21.9922Z" fill="#3E4958"/>
<defs>
<filter id="filter0_d_1498_8346" x="-0.0078125" y="0" width="56" height="56.0703" filterUnits="userSpaceOnUse" color-interpolation-filters="sRGB">
<feFlood flood-opacity="0" result="BackgroundImageFix"/>
<feColorMatrix in="SourceAlpha" type="matrix" values="0 0 0 0 0 0 0 0 0 0 0 0 0 0 0 0 0 0 127 0" result="hardAlpha"/>
<feOffset dy="4"/>
<feGaussianBlur stdDeviation="7.5"/>
<feColorMatrix type="matrix" values="0 0 0 0 0 0 0 0 0 0 0 0 0 0 0 0 0 0 0.15 0"/>
<feBlend mode="normal" in2="BackgroundImageFix" result="effect1_dropShadow_1498_8346"/>
<feBlend mode="normal" in="SourceGraphic" in2="effect1_dropShadow_1498_8346" result="shape"/>
</filter>
</defs>
</svg>
