<svg width="25" height="28" viewBox="0 0 25 28" fill="none" xmlns="http://www.w3.org/2000/svg">
<path fill-rule="evenodd" clip-rule="evenodd" d="M17.212 0.666748C21.404 0.666748 24.22 3.53741 24.22 7.80941V20.0707C24.22 24.3801 21.4907 27.1827 17.2667 27.2094L7.00933 27.2134C2.81733 27.2134 0 24.3427 0 20.0707V7.80941C0 3.49875 2.72933 0.697415 6.95333 0.672081L17.2107 0.666748H17.212ZM17.212 2.66675L6.96 2.67208C3.856 2.69075 2 4.61075 2 7.80941V20.0707C2 23.2907 3.87333 25.2134 7.008 25.2134L17.26 25.2094C20.364 25.1907 22.22 23.2681 22.22 20.0707V7.80941C22.22 4.58941 20.348 2.66675 17.212 2.66675ZM16.9548 18.6317C17.5068 18.6317 17.9548 19.0797 17.9548 19.6317C17.9548 20.1837 17.5068 20.6317 16.9548 20.6317H7.32813C6.77613 20.6317 6.32813 20.1837 6.32813 19.6317C6.32813 19.0797 6.77613 18.6317 7.32813 18.6317H16.9548ZM16.9548 13.0497C17.5068 13.0497 17.9548 13.4977 17.9548 14.0497C17.9548 14.6017 17.5068 15.0497 16.9548 15.0497H7.32813C6.77613 15.0497 6.32813 14.6017 6.32813 14.0497C6.32813 13.4977 6.77613 13.0497 7.32813 13.0497H16.9548ZM11.0011 7.48061C11.5531 7.48061 12.0011 7.92861 12.0011 8.48061C12.0011 9.03261 11.5531 9.48061 11.0011 9.48061H7.32773C6.77573 9.48061 6.32773 9.03261 6.32773 8.48061C6.32773 7.92861 6.77573 7.48061 7.32773 7.48061H11.0011Z" fill="black"/>
</svg>
